<svg id="flat" height="512" viewBox="0 0 512 512" width="512" xmlns="http://www.w3.org/2000/svg"><g fill="#bbedf2"><path d="m336 392-96 96h-56l-160-160v-56l96-96z"/><path d="m358.26755 374.92981 1.73314-6.93257a54.97 54.97 0 0 1 39.99655-39.99655l7.1154-1.77885-221.33448-221.33448-1.77885 7.1154a54.97 54.97 0 0 1 -39.99655 39.99655l-6.93257 1.73314z"/><path d="m439.1499 136.8501a32.00345 32.00345 0 0 0 -6.9099 34.9299l22.05 52.92a37.68342 37.68342 0 0 1 -8.14014 41.15015l-30.14986 30.14985-200-200 30.1499-30.1499a37.68342 37.68342 0 0 1 41.15015-8.1401l52.91995 22.05a32.00345 32.00345 0 0 0 34.9299-6.9099l48.8501-48.8501 64 64z"/></g><path d="m283.716 35.951h56.569v328.098h-56.569z" fill="#cdf4f7" transform="matrix(.707 -.707 .707 .707 -50.039 279.196)"/><path d="m203.716 115.951h56.569v328.098h-56.569z" fill="#cdf4f7" transform="matrix(.707 -.707 .707 .707 -130.039 246.059)"/><path d="m427.029 22.745h33.941v90.51h-33.941z" fill="#b9cd2a" transform="matrix(.707 -.707 .707 .707 81.961 333.872)"/><path d="m240 488-216-216v56l160 160z" fill="#9ce6ed"/></svg>