<?xml version="1.0" encoding="iso-8859-1"?>
<!-- Generator: Adobe Illustrator 19.0.0, SVG Export Plug-In . SVG Version: 6.00 Build 0)  -->
<svg version="1.1" id="Capa_1" xmlns="http://www.w3.org/2000/svg" xmlns:xlink="http://www.w3.org/1999/xlink" x="0px" y="0px"
	 viewBox="0 0 394.971 394.971" style="enable-background:new 0 0 394.971 394.971;" xml:space="preserve">
<g>
	<g>
		<g>
			<circle cx="56.424" cy="197.486" r="51.2"/>
			<path d="M379.298,187.037H143.151c-5.771,0-10.449,4.678-10.449,10.449s4.678,10.449,10.449,10.449h236.147
				c5.771,0,10.449-4.678,10.449-10.449S385.069,187.037,379.298,187.037z"/>
			<circle cx="56.424" cy="51.2" r="51.2"/>
			<path d="M143.151,61.649h236.147c5.771,0,10.449-4.678,10.449-10.449s-4.678-10.449-10.449-10.449H143.151
				c-5.771,0-10.449,4.678-10.449,10.449S137.38,61.649,143.151,61.649z"/>
			<circle cx="56.424" cy="343.771" r="51.2"/>
			<path d="M379.298,333.322H143.151c-5.771,0-10.449,4.678-10.449,10.449s4.678,10.449,10.449,10.449h236.147
				c5.771,0,10.449-4.678,10.449-10.449S385.069,333.322,379.298,333.322z"/>
		</g>
	</g>
</g>
<g>
</g>
<g>
</g>
<g>
</g>
<g>
</g>
<g>
</g>
<g>
</g>
<g>
</g>
<g>
</g>
<g>
</g>
<g>
</g>
<g>
</g>
<g>
</g>
<g>
</g>
<g>
</g>
<g>
</g>
</svg>
