<svg id="Capa_1" enable-background="new 0 0 512 512" height="512" viewBox="0 0 512 512" width="512" xmlns="http://www.w3.org/2000/svg"><g><g><path d="m73.286 506.377 18.637-13.367c2.165-1.553 5.08-1.553 7.245 0l24.853 17.826c2.166 1.553 5.08 1.553 7.246 0l24.848-17.825c2.166-1.553 5.08-1.553 7.246 0l24.849 17.825c2.166 1.553 5.08 1.553 7.246 0l24.847-17.824c2.166-1.554 5.081-1.553 7.246 0l24.846 17.824c2.166 1.554 5.081 1.554 7.247 0l24.842-17.823c2.166-1.554 5.081-1.554 7.247 0l24.841 17.823c2.166 1.554 5.081 1.554 7.247 0l24.838-17.823c2.166-1.554 5.081-1.554 7.247 0l24.845 17.824c2.166 1.554 5.081 1.554 7.247 0l24.843-17.824c2.166-1.554 5.081-1.554 7.247 0l18.627 13.364c4.113 2.951 9.839.011 9.839-5.05v-42.307h-385.104v42.309c0 5.059 5.726 7.998 9.838 5.048z" fill="#efecef"/></g><g><path d="m63.448 52.983h385.104v406.034h-385.104z" fill="#9dc6fb"/></g><g><path d="m417.158 52.983h31.394v406.034h-31.394z" fill="#80b4fb"/></g><g><path d="m438.714 5.623-18.637 13.367c-2.165 1.553-5.08 1.553-7.245 0l-24.853-17.825c-2.166-1.553-5.08-1.553-7.246 0l-24.848 17.825c-2.166 1.553-5.08 1.553-7.246 0l-24.849-17.825c-2.166-1.553-5.081-1.553-7.246 0l-24.847 17.825c-2.166 1.554-5.081 1.554-7.246 0l-24.847-17.824c-2.166-1.554-5.081-1.554-7.247 0l-24.842 17.823c-2.166 1.554-5.081 1.554-7.247 0l-24.841-17.823c-2.166-1.554-5.081-1.554-7.247 0l-24.838 17.823c-2.166 1.554-5.081 1.554-7.247 0l-24.845-17.823c-2.166-1.554-5.081-1.554-7.247 0l-24.842 17.823c-2.166 1.554-5.081 1.554-7.247 0l-18.627-13.364c-4.113-2.951-9.839-.011-9.839 5.05v42.307h385.104v-42.308c0-5.062-5.726-8.001-9.838-5.051z" fill="#efecef"/></g><g><path d="m438.714 5.623-18.637 13.367c-.882.633-1.89.994-2.919 1.111v32.882h31.394v-42.309c0-5.062-5.726-8.001-9.838-5.051z" fill="#dddaec"/></g><g><path d="m417.158 459.017v32.882c1.033.116 2.044.477 2.929 1.112l18.627 13.364c4.113 2.951 9.839.011 9.839-5.05v-42.307h-31.395z" fill="#dddaec"/></g><g><g><circle cx="256" cy="191.118" fill="#f4fbff" r="104.648"/></g><g><g><ellipse cx="256" cy="191.118" fill="#986b54" rx="66.975" ry="50.231" transform="matrix(.707 -.707 .707 .707 -60.16 236.997)"/></g><g><path d="m312.669 158.772c-2.483 14.475-10.221 29.578-22.795 42.151-26.155 26.155-63.26 31.456-82.877 11.84-4.272-4.272-7.36-9.374-9.311-15.012-2.682 15.636.769 30.539 10.956 40.726 19.616 19.616 56.722 14.316 82.877-11.84 20.459-20.459 28.156-47.617 21.15-67.865z" fill="#845c47"/></g></g><g><path d="m329.253 385.763h-146.506c-5.78 0-10.465-4.685-10.465-10.465v-20.93c0-5.78 4.685-10.465 10.465-10.465h146.507c5.78 0 10.465 4.685 10.465 10.465v20.93c-.001 5.78-4.686 10.465-10.466 10.465z" fill="#ccf49f"/></g></g><g><path d="m230.123 221.805c-1.988 0-3.977-.759-5.494-2.275-3.034-3.035-3.034-7.954 0-10.989 3.976-3.975 7.604-4.862 10.004-5.45 1.532-.374 1.808-.442 2.71-1.345.904-.904.971-1.181 1.347-2.713.588-2.401 1.476-6.03 5.452-10.005s7.605-4.863 10.005-5.451c1.532-.374 1.808-.442 2.71-1.345.905-.905.973-1.182 1.35-2.716.588-2.401 1.477-6.03 5.453-10.006 3.977-3.976 7.605-4.865 10.006-5.453 1.534-.376 1.811-.444 2.715-1.35 3.035-3.033 7.954-3.033 10.989 0 3.034 3.035 3.034 7.954 0 10.989-3.977 3.976-7.605 4.865-10.006 5.453-1.534.376-1.811.444-2.715 1.35-.905.904-.973 1.181-1.35 2.715-.588 2.402-1.477 6.031-5.454 10.006-3.974 3.975-7.603 4.863-10.004 5.451-1.532.375-1.808.442-2.71 1.346-.903.903-.971 1.18-1.347 2.712-.588 2.401-1.477 6.03-5.452 10.005-3.976 3.976-7.605 4.863-10.005 5.451-1.532.374-1.808.442-2.709 1.345-1.518 1.516-3.507 2.275-5.495 2.275z" fill="#664545"/></g><g><g><g><path d="m415.065 433.299h-35.58c-4.292 0-7.77-3.478-7.77-7.77s3.478-7.77 7.77-7.77h35.58c4.292 0 7.77 3.478 7.77 7.77s-3.479 7.77-7.77 7.77z" fill="#f4fbff"/></g></g><g><g><path d="m415.065 399.812h-25.116c-4.292 0-7.77-3.478-7.77-7.77s3.478-7.77 7.77-7.77h25.116c4.292 0 7.77 3.478 7.77 7.77s-3.479 7.77-7.77 7.77z" fill="#f4fbff"/></g></g></g><g><g><g><path d="m132.516 433.299h-35.58c-4.292 0-7.77-3.478-7.77-7.77s3.478-7.77 7.77-7.77h35.58c4.292 0 7.77 3.478 7.77 7.77s-3.479 7.77-7.77 7.77z" fill="#f4fbff"/></g></g><g><g><path d="m122.051 399.812h-25.116c-4.292 0-7.77-3.478-7.77-7.77s3.478-7.77 7.77-7.77h25.116c4.292 0 7.77 3.478 7.77 7.77s-3.479 7.77-7.77 7.77z" fill="#f4fbff"/></g></g></g></g></svg>