<svg height="512" viewBox="0 0 64 64" width="512" xmlns="http://www.w3.org/2000/svg"><g id="flat"><path d="m40.937 23h-17.937a2.957 2.957 0 0 0 -3 3v30a6.121 6.121 0 0 0 6 6h12a6.121 6.121 0 0 0 6-6v-29.938a3.062 3.062 0 0 0 -3.063-3.062z" fill="#b9ddfc"/><path d="m20 29h24v22h-24z" fill="#50b4f8"/><path d="m36 42a4 4 0 0 1 -8 0c0-2.209 4-8 4-8s4 5.791 4 8z" fill="#f4f4e6"/><path d="m36 11h-8l-6 3a3.479 3.479 0 0 0 -2 3v4a2 2 0 0 0 2 2h20a2 2 0 0 0 2-2v-4a3.479 3.479 0 0 0 -2-3z" fill="#96c3f0"/><path d="m28 7h8v4h-8z" fill="#50b4f8"/><path d="m30 3h4a2 2 0 0 1 2 2v2a0 0 0 0 1 0 0h-8a0 0 0 0 1 0 0v-2a2 2 0 0 1 2-2z" fill="#4f97d5"/><path d="m37.293 58.707-2.707-2.707h-5.172l-2.707 2.707-1.414-1.414 3-3a1 1 0 0 1 .707-.293h6a1 1 0 0 1 .707.293l3 3z" fill="#96c3f0"/><g fill="#f4f4e6"><path d="m23 32h2v2h-2z"/><path d="m39 18h2v2h-2z"/></g></g></svg>